<svg width="32" height="33" viewBox="0 0 32 33" fill="none" xmlns="http://www.w3.org/2000/svg">
<path d="M4 10.8271V22.3184C4 23.0446 4.38793 23.7155 5.01755 24.0786L14.9824 29.8242C15.6121 30.1873 16.3879 30.1873 17.0176 29.8242L26.9824 24.0786C27.6121 23.7155 28 23.0446 28 22.3184V10.8271C28 10.1009 27.6121 9.42998 26.9824 9.0669L17.0176 3.32114C16.3879 2.95806 15.6121 2.95806 14.9824 3.32114L5.01755 9.0669C4.38793 9.42983 4 10.1009 4 10.8271Z" fill="#00041A"/>
<path d="M15.9799 24.627C15.8632 24.6896 15.7224 24.688 15.607 24.6229L8.0148 20.3429C7.75702 20.1975 7.43799 20.3836 7.43799 20.6793C7.43799 20.8152 7.50954 20.9411 7.62625 21.0109L15.6296 25.7894C15.7496 25.861 15.8988 25.8624 16.0201 25.7932L24.367 21.0254C24.5 20.9494 24.5753 20.8024 24.5596 20.6503C24.5356 20.4167 24.5137 20.0937 24.5676 20.0293L15.9799 24.627Z" fill="white"/>
<path d="M24.5708 20.0291L24.5925 20.0176C24.5842 20.0176 24.5771 20.0218 24.5708 20.0291Z" fill="white"/>
<path d="M24.2608 22.2883L15.8274 27.0176L7.31846 22.1585C7.07286 22.0182 6.92116 21.7573 6.92116 21.4746V19.5681C6.92116 19.2047 7.31237 18.9754 7.63015 19.1523L15.836 23.7249L25.5691 18.2171C25.6739 18.1578 25.6648 18.0039 25.5538 17.9573L24.4218 17.4822C23.6861 17.1734 22.852 17.2021 22.1393 17.5606L15.836 20.7318L9.54557 17.6348C8.72425 17.2303 7.76107 17.2317 6.94085 17.6382C6.28341 17.964 5.86768 18.6336 5.86768 19.3665V20.9276C5.86768 21.8003 6.32903 22.6082 7.08114 23.0524L15.8274 28.2184L26.057 22.356L25.5817 22.1821C25.1471 22.0229 24.6643 22.0618 24.2608 22.2882V22.2883Z" fill="#0097CF"/>
<path d="M26.5421 11.2556L15.9895 5.16C15.8945 5.10524 15.7774 5.10555 15.6828 5.16078L5.25698 11.2581C5.05262 11.3776 5.05684 11.6741 5.26448 11.7876L8.96534 13.8126V15.5122C8.96534 15.8275 9.13689 16.1178 9.41326 16.2702L15.4095 19.5777C15.6696 19.7211 15.9851 19.7217 16.2455 19.5789L22.2902 16.2696C22.5678 16.1176 22.7405 15.8265 22.7405 15.5102V13.8124L25.4213 12.381V16.1824C25.4213 16.3995 25.5977 16.5757 25.8151 16.5757H25.9842C26.2017 16.5757 26.3781 16.3995 26.3781 16.1824V11.8702L26.533 11.7875C26.7438 11.675 26.7488 11.3751 26.5419 11.2556H26.5421ZM24.8006 11.6904L15.9487 16.3479C15.887 16.3804 15.8132 16.38 15.7518 16.3471L7.0707 11.6979C6.9254 11.6202 6.92274 11.4132 7.06585 11.3316L15.7246 6.39138C15.7884 6.35503 15.8665 6.35456 15.9306 6.39029L24.8046 11.3224C24.9501 11.4032 24.9477 11.613 24.8004 11.6906L24.8006 11.6904Z" fill="white"/>
</svg>
